<svg width="23" height="22" viewBox="0 0 23 22" fill="none" xmlns="http://www.w3.org/2000/svg">
<g id="icn bxs-star">
<path id="Vector" d="M20.6716 8.41243C20.6139 8.24262 20.5078 8.09341 20.3663 7.98322C20.2248 7.87303 20.0542 7.80669 19.8754 7.79238L14.6463 7.37688L12.3835 2.36786C12.3114 2.20653 12.1942 2.0695 12.046 1.97332C11.8977 1.87714 11.7248 1.8259 11.5482 1.82581C11.3715 1.82571 11.1985 1.87675 11.0502 1.97277C10.9019 2.0688 10.7845 2.20569 10.7123 2.36694L8.44944 7.37688L3.22029 7.79238C3.04459 7.8063 2.87663 7.87054 2.73649 7.97742C2.59636 8.08429 2.48998 8.22928 2.43008 8.39503C2.37019 8.56079 2.35931 8.74028 2.39876 8.91205C2.43821 9.08383 2.52631 9.24059 2.65252 9.36361L6.51682 13.1307L5.15015 19.0487C5.10865 19.2278 5.12195 19.4153 5.18832 19.5868C5.25469 19.7583 5.37107 19.9058 5.52236 20.0103C5.67365 20.1149 5.85286 20.1715 6.03673 20.1729C6.2206 20.1743 6.40065 20.1204 6.55351 20.0182L11.5479 16.6886L16.5422 20.0182C16.6984 20.1219 16.8827 20.1753 17.0702 20.1712C17.2577 20.1671 17.4394 20.1057 17.591 19.9952C17.7425 19.8847 17.8566 19.7305 17.9178 19.5532C17.9791 19.376 17.9846 19.1842 17.9336 19.0037L16.256 13.1334L20.4166 9.38929C20.689 9.14347 20.789 8.76007 20.6716 8.41243Z" fill="#F3CD03"/>
</g>
</svg>
